<svg xmlns="http://www.w3.org/2000/svg" version="1.1" xmlns:xlink="http://www.w3.org/1999/xlink" xmlns:svgjs="http://svgjs.com/svgjs" width="1440" height="560" preserveAspectRatio="none" viewBox="0 0 1440 560"><g mask="url(&quot;#SvgjsMask1204&quot;)" fill="none"><path d="M98.55 368.45L136.66 390.45L136.66 434.45L98.55 456.45L60.45 434.45L60.45 390.45zM136.66 434.45L174.76 456.45L174.76 500.45L136.66 522.45L98.55 500.45L98.55 456.45zM289.08 38.45L327.19 60.45L327.19 104.45L289.08 126.45L250.98 104.45L250.98 60.45zM289.08 302.45L327.19 324.45L327.19 368.45L289.08 390.45L250.98 368.45L250.98 324.45zM250.98 368.45L289.08 390.45L289.08 434.45L250.98 456.45L212.87 434.45L212.87 390.45zM289.08 434.45L327.19 456.45L327.19 500.45L289.08 522.45L250.98 500.45L250.98 456.45zM365.3 302.45L403.4 324.45L403.4 368.45L365.3 390.45L327.19 368.45L327.19 324.45zM441.51 170.45L479.61 192.45L479.61 236.45L441.51 258.45L403.4 236.45L403.4 192.45zM479.61 104.45L517.72 126.45L517.72 170.45L479.61 192.45L441.51 170.45L441.51 126.45zM517.72 434.45L555.83 456.45L555.83 500.45L517.72 522.45L479.61 500.45L479.61 456.45zM593.93 38.45L632.04 60.45L632.04 104.45L593.93 126.45L555.83 104.45L555.83 60.45zM555.83 368.45L593.93 390.45L593.93 434.45L555.83 456.45L517.72 434.45L517.72 390.45zM784.46 236.45L822.57 258.45L822.57 302.45L784.46 324.45L746.36 302.45L746.36 258.45zM975 434.45L1013.1 456.45L1013.1 500.45L975 522.45L936.89 500.45L936.89 456.45zM1165.53 -27.55L1203.63 -5.55L1203.63 38.45L1165.53 60.45L1127.42 38.45L1127.42 -5.55zM1279.84 302.45L1317.95 324.45L1317.95 368.45L1279.84 390.45L1241.74 368.45L1241.74 324.45zM1356.06 170.45L1394.16 192.45L1394.16 236.45L1356.06 258.45L1317.95 236.45L1317.95 192.45z" stroke="rgba(93, 131, 116, 1)" stroke-width="2"></path><path d="M94.15 368.45 a4.4 4.4 0 1 0 8.8 0 a4.4 4.4 0 1 0 -8.8 0zM132.26 390.45 a4.4 4.4 0 1 0 8.8 0 a4.4 4.4 0 1 0 -8.8 0zM132.26 434.45 a4.4 4.4 0 1 0 8.8 0 a4.4 4.4 0 1 0 -8.8 0zM94.15 456.45 a4.4 4.4 0 1 0 8.8 0 a4.4 4.4 0 1 0 -8.8 0zM56.05 434.45 a4.4 4.4 0 1 0 8.8 0 a4.4 4.4 0 1 0 -8.8 0zM56.05 390.45 a4.4 4.4 0 1 0 8.8 0 a4.4 4.4 0 1 0 -8.8 0zM170.36 456.45 a4.4 4.4 0 1 0 8.8 0 a4.4 4.4 0 1 0 -8.8 0zM170.36 500.45 a4.4 4.4 0 1 0 8.8 0 a4.4 4.4 0 1 0 -8.8 0zM132.26 522.45 a4.4 4.4 0 1 0 8.8 0 a4.4 4.4 0 1 0 -8.8 0zM94.15 500.45 a4.4 4.4 0 1 0 8.8 0 a4.4 4.4 0 1 0 -8.8 0zM284.68 38.45 a4.4 4.4 0 1 0 8.8 0 a4.4 4.4 0 1 0 -8.8 0zM322.79 60.45 a4.4 4.4 0 1 0 8.8 0 a4.4 4.4 0 1 0 -8.8 0zM322.79 104.45 a4.4 4.4 0 1 0 8.8 0 a4.4 4.4 0 1 0 -8.8 0zM284.68 126.45 a4.4 4.4 0 1 0 8.8 0 a4.4 4.4 0 1 0 -8.8 0zM246.58 104.45 a4.4 4.4 0 1 0 8.8 0 a4.4 4.4 0 1 0 -8.8 0zM246.58 60.45 a4.4 4.4 0 1 0 8.8 0 a4.4 4.4 0 1 0 -8.8 0zM284.68 302.45 a4.4 4.4 0 1 0 8.8 0 a4.4 4.4 0 1 0 -8.8 0zM322.79 324.45 a4.4 4.4 0 1 0 8.8 0 a4.4 4.4 0 1 0 -8.8 0zM322.79 368.45 a4.4 4.4 0 1 0 8.8 0 a4.4 4.4 0 1 0 -8.8 0zM284.68 390.45 a4.4 4.4 0 1 0 8.8 0 a4.4 4.4 0 1 0 -8.8 0zM246.58 368.45 a4.4 4.4 0 1 0 8.8 0 a4.4 4.4 0 1 0 -8.8 0zM246.58 324.45 a4.4 4.4 0 1 0 8.8 0 a4.4 4.4 0 1 0 -8.8 0zM284.68 434.45 a4.4 4.4 0 1 0 8.8 0 a4.4 4.4 0 1 0 -8.8 0zM246.58 456.45 a4.4 4.4 0 1 0 8.8 0 a4.4 4.4 0 1 0 -8.8 0zM208.47 434.45 a4.4 4.4 0 1 0 8.8 0 a4.4 4.4 0 1 0 -8.8 0zM208.47 390.45 a4.4 4.4 0 1 0 8.8 0 a4.4 4.4 0 1 0 -8.8 0zM322.79 456.45 a4.4 4.4 0 1 0 8.8 0 a4.4 4.4 0 1 0 -8.8 0zM322.79 500.45 a4.4 4.4 0 1 0 8.8 0 a4.4 4.4 0 1 0 -8.8 0zM284.68 522.45 a4.4 4.4 0 1 0 8.8 0 a4.4 4.4 0 1 0 -8.8 0zM246.58 500.45 a4.4 4.4 0 1 0 8.8 0 a4.4 4.4 0 1 0 -8.8 0zM360.9 302.45 a4.4 4.4 0 1 0 8.8 0 a4.4 4.4 0 1 0 -8.8 0zM399 324.45 a4.4 4.4 0 1 0 8.8 0 a4.4 4.4 0 1 0 -8.8 0zM399 368.45 a4.4 4.4 0 1 0 8.8 0 a4.4 4.4 0 1 0 -8.8 0zM360.9 390.45 a4.4 4.4 0 1 0 8.8 0 a4.4 4.4 0 1 0 -8.8 0zM437.11 170.45 a4.4 4.4 0 1 0 8.8 0 a4.4 4.4 0 1 0 -8.8 0zM475.21 192.45 a4.4 4.4 0 1 0 8.8 0 a4.4 4.4 0 1 0 -8.8 0zM475.21 236.45 a4.4 4.4 0 1 0 8.8 0 a4.4 4.4 0 1 0 -8.8 0zM437.11 258.45 a4.4 4.4 0 1 0 8.8 0 a4.4 4.4 0 1 0 -8.8 0zM399 236.45 a4.4 4.4 0 1 0 8.8 0 a4.4 4.4 0 1 0 -8.8 0zM399 192.45 a4.4 4.4 0 1 0 8.8 0 a4.4 4.4 0 1 0 -8.8 0zM475.21 104.45 a4.4 4.4 0 1 0 8.8 0 a4.4 4.4 0 1 0 -8.8 0zM513.32 126.45 a4.4 4.4 0 1 0 8.8 0 a4.4 4.4 0 1 0 -8.8 0zM513.32 170.45 a4.4 4.4 0 1 0 8.8 0 a4.4 4.4 0 1 0 -8.8 0zM437.11 126.45 a4.4 4.4 0 1 0 8.8 0 a4.4 4.4 0 1 0 -8.8 0zM513.32 434.45 a4.4 4.4 0 1 0 8.8 0 a4.4 4.4 0 1 0 -8.8 0zM551.43 456.45 a4.4 4.4 0 1 0 8.8 0 a4.4 4.4 0 1 0 -8.8 0zM551.43 500.45 a4.4 4.4 0 1 0 8.8 0 a4.4 4.4 0 1 0 -8.8 0zM513.32 522.45 a4.4 4.4 0 1 0 8.8 0 a4.4 4.4 0 1 0 -8.8 0zM475.21 500.45 a4.4 4.4 0 1 0 8.8 0 a4.4 4.4 0 1 0 -8.8 0zM475.21 456.45 a4.4 4.4 0 1 0 8.8 0 a4.4 4.4 0 1 0 -8.8 0zM589.53 38.45 a4.4 4.4 0 1 0 8.8 0 a4.4 4.4 0 1 0 -8.8 0zM627.64 60.45 a4.4 4.4 0 1 0 8.8 0 a4.4 4.4 0 1 0 -8.8 0zM627.64 104.45 a4.4 4.4 0 1 0 8.8 0 a4.4 4.4 0 1 0 -8.8 0zM589.53 126.45 a4.4 4.4 0 1 0 8.8 0 a4.4 4.4 0 1 0 -8.8 0zM551.43 104.45 a4.4 4.4 0 1 0 8.8 0 a4.4 4.4 0 1 0 -8.8 0zM551.43 60.45 a4.4 4.4 0 1 0 8.8 0 a4.4 4.4 0 1 0 -8.8 0zM551.43 368.45 a4.4 4.4 0 1 0 8.8 0 a4.4 4.4 0 1 0 -8.8 0zM589.53 390.45 a4.4 4.4 0 1 0 8.8 0 a4.4 4.4 0 1 0 -8.8 0zM589.53 434.45 a4.4 4.4 0 1 0 8.8 0 a4.4 4.4 0 1 0 -8.8 0zM513.32 390.45 a4.4 4.4 0 1 0 8.8 0 a4.4 4.4 0 1 0 -8.8 0zM780.06 236.45 a4.4 4.4 0 1 0 8.8 0 a4.4 4.4 0 1 0 -8.8 0zM818.17 258.45 a4.4 4.4 0 1 0 8.8 0 a4.4 4.4 0 1 0 -8.8 0zM818.17 302.45 a4.4 4.4 0 1 0 8.8 0 a4.4 4.4 0 1 0 -8.8 0zM780.06 324.45 a4.4 4.4 0 1 0 8.8 0 a4.4 4.4 0 1 0 -8.8 0zM741.96 302.45 a4.4 4.4 0 1 0 8.8 0 a4.4 4.4 0 1 0 -8.8 0zM741.96 258.45 a4.4 4.4 0 1 0 8.8 0 a4.4 4.4 0 1 0 -8.8 0zM970.6 434.45 a4.4 4.4 0 1 0 8.8 0 a4.4 4.4 0 1 0 -8.8 0zM1008.7 456.45 a4.4 4.4 0 1 0 8.8 0 a4.4 4.4 0 1 0 -8.8 0zM1008.7 500.45 a4.4 4.4 0 1 0 8.8 0 a4.4 4.4 0 1 0 -8.8 0zM970.6 522.45 a4.4 4.4 0 1 0 8.8 0 a4.4 4.4 0 1 0 -8.8 0zM932.49 500.45 a4.4 4.4 0 1 0 8.8 0 a4.4 4.4 0 1 0 -8.8 0zM932.49 456.45 a4.4 4.4 0 1 0 8.8 0 a4.4 4.4 0 1 0 -8.8 0zM1161.13 -27.55 a4.4 4.4 0 1 0 8.8 0 a4.4 4.4 0 1 0 -8.8 0zM1199.23 -5.55 a4.4 4.4 0 1 0 8.8 0 a4.4 4.4 0 1 0 -8.8 0zM1199.23 38.45 a4.4 4.4 0 1 0 8.8 0 a4.4 4.4 0 1 0 -8.8 0zM1161.13 60.45 a4.4 4.4 0 1 0 8.8 0 a4.4 4.4 0 1 0 -8.8 0zM1123.02 38.45 a4.4 4.4 0 1 0 8.8 0 a4.4 4.4 0 1 0 -8.8 0zM1123.02 -5.55 a4.4 4.4 0 1 0 8.8 0 a4.4 4.4 0 1 0 -8.8 0zM1275.44 302.45 a4.4 4.4 0 1 0 8.8 0 a4.4 4.4 0 1 0 -8.8 0zM1313.55 324.45 a4.4 4.4 0 1 0 8.8 0 a4.4 4.4 0 1 0 -8.8 0zM1313.55 368.45 a4.4 4.4 0 1 0 8.8 0 a4.4 4.4 0 1 0 -8.8 0zM1275.44 390.45 a4.4 4.4 0 1 0 8.8 0 a4.4 4.4 0 1 0 -8.8 0zM1237.34 368.45 a4.4 4.4 0 1 0 8.8 0 a4.4 4.4 0 1 0 -8.8 0zM1237.34 324.45 a4.4 4.4 0 1 0 8.8 0 a4.4 4.4 0 1 0 -8.8 0zM1351.66 170.45 a4.4 4.4 0 1 0 8.8 0 a4.4 4.4 0 1 0 -8.8 0zM1389.76 192.45 a4.4 4.4 0 1 0 8.8 0 a4.4 4.4 0 1 0 -8.8 0zM1389.76 236.45 a4.4 4.4 0 1 0 8.8 0 a4.4 4.4 0 1 0 -8.8 0zM1351.66 258.45 a4.4 4.4 0 1 0 8.8 0 a4.4 4.4 0 1 0 -8.8 0zM1313.55 236.45 a4.4 4.4 0 1 0 8.8 0 a4.4 4.4 0 1 0 -8.8 0zM1313.55 192.45 a4.4 4.4 0 1 0 8.8 0 a4.4 4.4 0 1 0 -8.8 0z" fill="rgba(93, 131, 116, 1)"></path><path d="M77.69 48.95L128.78 78.45L128.78 137.45L77.69 166.95L26.59 137.45L26.59 78.45zM26.59 491.45L77.69 520.95L77.69 579.95L26.59 609.45L-24.51 579.95L-24.51 520.95zM128.78 137.45L179.88 166.95L179.88 225.95L128.78 255.45L77.69 225.95L77.69 166.95zM179.88 402.95L230.98 432.45L230.98 491.45L179.88 520.95L128.78 491.45L128.78 432.45zM384.27 48.95L435.37 78.45L435.37 137.45L384.27 166.95L333.17 137.45L333.17 78.45zM333.17 314.45L384.27 343.95L384.27 402.95L333.17 432.45L282.07 402.95L282.07 343.95zM384.27 402.95L435.37 432.45L435.37 491.45L384.27 520.95L333.17 491.45L333.17 432.45zM435.37 491.45L486.46 520.95L486.46 579.95L435.37 609.45L384.27 579.95L384.27 520.95zM588.66 402.95L639.75 432.45L639.75 491.45L588.66 520.95L537.56 491.45L537.56 432.45zM639.75 137.45L690.85 166.95L690.85 225.95L639.75 255.45L588.66 225.95L588.66 166.95zM639.75 314.45L690.85 343.95L690.85 402.95L639.75 432.45L588.66 402.95L588.66 343.95zM741.95 137.45L793.04 166.95L793.04 225.95L741.95 255.45L690.85 225.95L690.85 166.95zM844.14 -39.55L895.24 -10.05L895.24 48.95L844.14 78.45L793.04 48.95L793.04 -10.05zM895.24 48.95L946.34 78.45L946.34 137.45L895.24 166.95L844.14 137.45L844.14 78.45zM895.24 225.95L946.34 255.45L946.34 314.45L895.24 343.95L844.14 314.45L844.14 255.45zM844.14 491.45L895.24 520.95L895.24 579.95L844.14 609.45L793.04 579.95L793.04 520.95zM1048.53 -39.55L1099.63 -10.05L1099.63 48.95L1048.53 78.45L997.43 48.95L997.43 -10.05zM1150.72 314.45L1201.82 343.95L1201.82 402.95L1150.72 432.45L1099.63 402.95L1099.63 343.95zM1252.92 -39.55L1304.01 -10.05L1304.01 48.95L1252.92 78.45L1201.82 48.95L1201.82 -10.05zM1304.01 48.95L1355.11 78.45L1355.11 137.45L1304.01 166.95L1252.92 137.45L1252.92 78.45zM1252.92 137.45L1304.01 166.95L1304.01 225.95L1252.92 255.45L1201.82 225.95L1201.82 166.95zM1406.21 225.95L1457.3 255.45L1457.3 314.45L1406.21 343.95L1355.11 314.45L1355.11 255.45zM1355.11 314.45L1406.21 343.95L1406.21 402.95L1355.11 432.45L1304.01 402.95L1304.01 343.95zM1406.21 402.95L1457.3 432.45L1457.3 491.45L1406.21 520.95L1355.11 491.45L1355.11 432.45zM1508.4 225.95L1559.5 255.45L1559.5 314.45L1508.4 343.95L1457.3 314.45L1457.3 255.45z" stroke="rgba(89, 106, 99, 1)" stroke-width="2"></path></g><defs><mask id="SvgjsMask1204"><rect width="1440" height="560" fill="#ffffff"></rect></mask></defs></svg>