<svg xmlns="http://www.w3.org/2000/svg" version="1.1" xmlns:xlink="http://www.w3.org/1999/xlink" xmlns:svgjs="http://svgjs.com/svgjs" width="1440" height="560" preserveAspectRatio="none" viewBox="0 0 1440 560"><g mask="url(&quot;#SvgjsMask1222&quot;)" fill="none"><rect width="1440" height="560" x="0" y="0" fill="rgba(93, 131, 116, 1)"></rect><path d="M2.39 -43.03L40.5 -21.03L40.5 22.97L2.39 44.97L-35.72 22.97L-35.72 -21.03zM40.5 154.97L78.6 176.97L78.6 220.97L40.5 242.97L2.39 220.97L2.39 176.97zM192.92 22.97L231.03 44.97L231.03 88.97L192.92 110.97L154.81 88.97L154.81 44.97zM192.92 154.97L231.03 176.97L231.03 220.97L192.92 242.97L154.81 220.97L154.81 176.97zM192.92 286.97L231.03 308.97L231.03 352.97L192.92 374.97L154.81 352.97L154.81 308.97zM269.13 154.97L307.24 176.97L307.24 220.97L269.13 242.97L231.03 220.97L231.03 176.97zM269.13 418.97L307.24 440.97L307.24 484.97L269.13 506.97L231.03 484.97L231.03 440.97zM383.45 220.97L421.56 242.97L421.56 286.97L383.45 308.97L345.35 286.97L345.35 242.97zM459.66 220.97L497.77 242.97L497.77 286.97L459.66 308.97L421.56 286.97L421.56 242.97zM459.66 352.97L497.77 374.97L497.77 418.97L459.66 440.97L421.56 418.97L421.56 374.97zM612.09 -43.03L650.2 -21.03L650.2 22.97L612.09 44.97L573.98 22.97L573.98 -21.03zM650.2 22.97L688.3 44.97L688.3 88.97L650.2 110.97L612.09 88.97L612.09 44.97zM612.09 220.97L650.2 242.97L650.2 286.97L612.09 308.97L573.98 286.97L573.98 242.97zM688.3 -43.03L726.41 -21.03L726.41 22.97L688.3 44.97L650.2 22.97L650.2 -21.03zM688.3 484.97L726.41 506.97L726.41 550.97L688.3 572.97L650.2 550.97L650.2 506.97zM802.62 22.97L840.73 44.97L840.73 88.97L802.62 110.97L764.51 88.97L764.51 44.97zM802.62 154.97L840.73 176.97L840.73 220.97L802.62 242.97L764.51 220.97L764.51 176.97zM802.62 418.97L840.73 440.97L840.73 484.97L802.62 506.97L764.51 484.97L764.51 440.97zM955.04 22.97L993.15 44.97L993.15 88.97L955.04 110.97L916.94 88.97L916.94 44.97zM1031.26 22.97L1069.36 44.97L1069.36 88.97L1031.26 110.97L993.15 88.97L993.15 44.97zM993.15 352.97L1031.26 374.97L1031.26 418.97L993.15 440.97L955.04 418.97L955.04 374.97zM1069.36 88.97L1107.47 110.97L1107.47 154.97L1069.36 176.97L1031.26 154.97L1031.26 110.97zM1107.47 418.97L1145.58 440.97L1145.58 484.97L1107.47 506.97L1069.36 484.97L1069.36 440.97zM1221.79 484.97L1259.89 506.97L1259.89 550.97L1221.79 572.97L1183.68 550.97L1183.68 506.97zM1298 484.97L1336.11 506.97L1336.11 550.97L1298 572.97L1259.89 550.97L1259.89 506.97z" stroke="rgba(102, 140, 126, 1)" stroke-width="2"></path><path d="M-2.01 -43.03 a4.4 4.4 0 1 0 8.8 0 a4.4 4.4 0 1 0 -8.8 0zM36.1 -21.03 a4.4 4.4 0 1 0 8.8 0 a4.4 4.4 0 1 0 -8.8 0zM36.1 22.97 a4.4 4.4 0 1 0 8.8 0 a4.4 4.4 0 1 0 -8.8 0zM-2.01 44.97 a4.4 4.4 0 1 0 8.8 0 a4.4 4.4 0 1 0 -8.8 0zM-40.12 22.97 a4.4 4.4 0 1 0 8.8 0 a4.4 4.4 0 1 0 -8.8 0zM-40.12 -21.03 a4.4 4.4 0 1 0 8.8 0 a4.4 4.4 0 1 0 -8.8 0zM36.1 154.97 a4.4 4.4 0 1 0 8.8 0 a4.4 4.4 0 1 0 -8.8 0zM74.2 176.97 a4.4 4.4 0 1 0 8.8 0 a4.4 4.4 0 1 0 -8.8 0zM74.2 220.97 a4.4 4.4 0 1 0 8.8 0 a4.4 4.4 0 1 0 -8.8 0zM36.1 242.97 a4.4 4.4 0 1 0 8.8 0 a4.4 4.4 0 1 0 -8.8 0zM-2.01 220.97 a4.4 4.4 0 1 0 8.8 0 a4.4 4.4 0 1 0 -8.8 0zM-2.01 176.97 a4.4 4.4 0 1 0 8.8 0 a4.4 4.4 0 1 0 -8.8 0zM188.52 22.97 a4.4 4.4 0 1 0 8.8 0 a4.4 4.4 0 1 0 -8.8 0zM226.63 44.97 a4.4 4.4 0 1 0 8.8 0 a4.4 4.4 0 1 0 -8.8 0zM226.63 88.97 a4.4 4.4 0 1 0 8.8 0 a4.4 4.4 0 1 0 -8.8 0zM188.52 110.97 a4.4 4.4 0 1 0 8.8 0 a4.4 4.4 0 1 0 -8.8 0zM150.41 88.97 a4.4 4.4 0 1 0 8.8 0 a4.4 4.4 0 1 0 -8.8 0zM150.41 44.97 a4.4 4.4 0 1 0 8.8 0 a4.4 4.4 0 1 0 -8.8 0zM188.52 154.97 a4.4 4.4 0 1 0 8.8 0 a4.4 4.4 0 1 0 -8.8 0zM226.63 176.97 a4.4 4.4 0 1 0 8.8 0 a4.4 4.4 0 1 0 -8.8 0zM226.63 220.97 a4.4 4.4 0 1 0 8.8 0 a4.4 4.4 0 1 0 -8.8 0zM188.52 242.97 a4.4 4.4 0 1 0 8.8 0 a4.4 4.4 0 1 0 -8.8 0zM150.41 220.97 a4.4 4.4 0 1 0 8.8 0 a4.4 4.4 0 1 0 -8.8 0zM150.41 176.97 a4.4 4.4 0 1 0 8.8 0 a4.4 4.4 0 1 0 -8.8 0zM188.52 286.97 a4.4 4.4 0 1 0 8.8 0 a4.4 4.4 0 1 0 -8.8 0zM226.63 308.97 a4.4 4.4 0 1 0 8.8 0 a4.4 4.4 0 1 0 -8.8 0zM226.63 352.97 a4.4 4.4 0 1 0 8.8 0 a4.4 4.4 0 1 0 -8.8 0zM188.52 374.97 a4.4 4.4 0 1 0 8.8 0 a4.4 4.4 0 1 0 -8.8 0zM150.41 352.97 a4.4 4.4 0 1 0 8.8 0 a4.4 4.4 0 1 0 -8.8 0zM150.41 308.97 a4.4 4.4 0 1 0 8.8 0 a4.4 4.4 0 1 0 -8.8 0zM264.73 154.97 a4.4 4.4 0 1 0 8.8 0 a4.4 4.4 0 1 0 -8.8 0zM302.84 176.97 a4.4 4.4 0 1 0 8.8 0 a4.4 4.4 0 1 0 -8.8 0zM302.84 220.97 a4.4 4.4 0 1 0 8.8 0 a4.4 4.4 0 1 0 -8.8 0zM264.73 242.97 a4.4 4.4 0 1 0 8.8 0 a4.4 4.4 0 1 0 -8.8 0zM264.73 418.97 a4.4 4.4 0 1 0 8.8 0 a4.4 4.4 0 1 0 -8.8 0zM302.84 440.97 a4.4 4.4 0 1 0 8.8 0 a4.4 4.4 0 1 0 -8.8 0zM302.84 484.97 a4.4 4.4 0 1 0 8.8 0 a4.4 4.4 0 1 0 -8.8 0zM264.73 506.97 a4.4 4.4 0 1 0 8.8 0 a4.4 4.4 0 1 0 -8.8 0zM226.63 484.97 a4.4 4.4 0 1 0 8.8 0 a4.4 4.4 0 1 0 -8.8 0zM226.63 440.97 a4.4 4.4 0 1 0 8.8 0 a4.4 4.4 0 1 0 -8.8 0zM379.05 220.97 a4.4 4.4 0 1 0 8.8 0 a4.4 4.4 0 1 0 -8.8 0zM417.16 242.97 a4.4 4.4 0 1 0 8.8 0 a4.4 4.4 0 1 0 -8.8 0zM417.16 286.97 a4.4 4.4 0 1 0 8.8 0 a4.4 4.4 0 1 0 -8.8 0zM379.05 308.97 a4.4 4.4 0 1 0 8.8 0 a4.4 4.4 0 1 0 -8.8 0zM340.95 286.97 a4.4 4.4 0 1 0 8.8 0 a4.4 4.4 0 1 0 -8.8 0zM340.95 242.97 a4.4 4.4 0 1 0 8.8 0 a4.4 4.4 0 1 0 -8.8 0zM455.26 220.97 a4.4 4.4 0 1 0 8.8 0 a4.4 4.4 0 1 0 -8.8 0zM493.37 242.97 a4.4 4.4 0 1 0 8.8 0 a4.4 4.4 0 1 0 -8.8 0zM493.37 286.97 a4.4 4.4 0 1 0 8.8 0 a4.4 4.4 0 1 0 -8.8 0zM455.26 308.97 a4.4 4.4 0 1 0 8.8 0 a4.4 4.4 0 1 0 -8.8 0zM455.26 352.97 a4.4 4.4 0 1 0 8.8 0 a4.4 4.4 0 1 0 -8.8 0zM493.37 374.97 a4.4 4.4 0 1 0 8.8 0 a4.4 4.4 0 1 0 -8.8 0zM493.37 418.97 a4.4 4.4 0 1 0 8.8 0 a4.4 4.4 0 1 0 -8.8 0zM455.26 440.97 a4.4 4.4 0 1 0 8.8 0 a4.4 4.4 0 1 0 -8.8 0zM417.16 418.97 a4.4 4.4 0 1 0 8.8 0 a4.4 4.4 0 1 0 -8.8 0zM417.16 374.97 a4.4 4.4 0 1 0 8.8 0 a4.4 4.4 0 1 0 -8.8 0zM607.69 -43.03 a4.4 4.4 0 1 0 8.8 0 a4.4 4.4 0 1 0 -8.8 0zM645.8 -21.03 a4.4 4.4 0 1 0 8.8 0 a4.4 4.4 0 1 0 -8.8 0zM645.8 22.97 a4.4 4.4 0 1 0 8.8 0 a4.4 4.4 0 1 0 -8.8 0zM607.69 44.97 a4.4 4.4 0 1 0 8.8 0 a4.4 4.4 0 1 0 -8.8 0zM569.58 22.97 a4.4 4.4 0 1 0 8.8 0 a4.4 4.4 0 1 0 -8.8 0zM569.58 -21.03 a4.4 4.4 0 1 0 8.8 0 a4.4 4.4 0 1 0 -8.8 0zM683.9 44.97 a4.4 4.4 0 1 0 8.8 0 a4.4 4.4 0 1 0 -8.8 0zM683.9 88.97 a4.4 4.4 0 1 0 8.8 0 a4.4 4.4 0 1 0 -8.8 0zM645.8 110.97 a4.4 4.4 0 1 0 8.8 0 a4.4 4.4 0 1 0 -8.8 0zM607.69 88.97 a4.4 4.4 0 1 0 8.8 0 a4.4 4.4 0 1 0 -8.8 0zM607.69 220.97 a4.4 4.4 0 1 0 8.8 0 a4.4 4.4 0 1 0 -8.8 0zM645.8 242.97 a4.4 4.4 0 1 0 8.8 0 a4.4 4.4 0 1 0 -8.8 0zM645.8 286.97 a4.4 4.4 0 1 0 8.8 0 a4.4 4.4 0 1 0 -8.8 0zM607.69 308.97 a4.4 4.4 0 1 0 8.8 0 a4.4 4.4 0 1 0 -8.8 0zM569.58 286.97 a4.4 4.4 0 1 0 8.8 0 a4.4 4.4 0 1 0 -8.8 0zM569.58 242.97 a4.4 4.4 0 1 0 8.8 0 a4.4 4.4 0 1 0 -8.8 0zM683.9 -43.03 a4.4 4.4 0 1 0 8.8 0 a4.4 4.4 0 1 0 -8.8 0zM722.01 -21.03 a4.4 4.4 0 1 0 8.8 0 a4.4 4.4 0 1 0 -8.8 0zM722.01 22.97 a4.4 4.4 0 1 0 8.8 0 a4.4 4.4 0 1 0 -8.8 0zM683.9 484.97 a4.4 4.4 0 1 0 8.8 0 a4.4 4.4 0 1 0 -8.8 0zM722.01 506.97 a4.4 4.4 0 1 0 8.8 0 a4.4 4.4 0 1 0 -8.8 0zM722.01 550.97 a4.4 4.4 0 1 0 8.8 0 a4.4 4.4 0 1 0 -8.8 0zM683.9 572.97 a4.4 4.4 0 1 0 8.8 0 a4.4 4.4 0 1 0 -8.8 0zM645.8 550.97 a4.4 4.4 0 1 0 8.8 0 a4.4 4.4 0 1 0 -8.8 0zM645.8 506.97 a4.4 4.4 0 1 0 8.8 0 a4.4 4.4 0 1 0 -8.8 0zM798.22 22.97 a4.4 4.4 0 1 0 8.8 0 a4.4 4.4 0 1 0 -8.8 0zM836.33 44.97 a4.4 4.4 0 1 0 8.8 0 a4.4 4.4 0 1 0 -8.8 0zM836.33 88.97 a4.4 4.4 0 1 0 8.8 0 a4.4 4.4 0 1 0 -8.8 0zM798.22 110.97 a4.4 4.4 0 1 0 8.8 0 a4.4 4.4 0 1 0 -8.8 0zM760.11 88.97 a4.4 4.4 0 1 0 8.8 0 a4.4 4.4 0 1 0 -8.8 0zM760.11 44.97 a4.4 4.4 0 1 0 8.8 0 a4.4 4.4 0 1 0 -8.8 0zM798.22 154.97 a4.4 4.4 0 1 0 8.8 0 a4.4 4.4 0 1 0 -8.8 0zM836.33 176.97 a4.4 4.4 0 1 0 8.8 0 a4.4 4.4 0 1 0 -8.8 0zM836.33 220.97 a4.4 4.4 0 1 0 8.8 0 a4.4 4.4 0 1 0 -8.8 0zM798.22 242.97 a4.4 4.4 0 1 0 8.8 0 a4.4 4.4 0 1 0 -8.8 0zM760.11 220.97 a4.4 4.4 0 1 0 8.8 0 a4.4 4.4 0 1 0 -8.8 0zM760.11 176.97 a4.4 4.4 0 1 0 8.8 0 a4.4 4.4 0 1 0 -8.8 0zM798.22 418.97 a4.4 4.4 0 1 0 8.8 0 a4.4 4.4 0 1 0 -8.8 0zM836.33 440.97 a4.4 4.4 0 1 0 8.8 0 a4.4 4.4 0 1 0 -8.8 0zM836.33 484.97 a4.4 4.4 0 1 0 8.8 0 a4.4 4.4 0 1 0 -8.8 0zM798.22 506.97 a4.4 4.4 0 1 0 8.8 0 a4.4 4.4 0 1 0 -8.8 0zM760.11 484.97 a4.4 4.4 0 1 0 8.8 0 a4.4 4.4 0 1 0 -8.8 0zM760.11 440.97 a4.4 4.4 0 1 0 8.8 0 a4.4 4.4 0 1 0 -8.8 0zM950.64 22.97 a4.4 4.4 0 1 0 8.8 0 a4.4 4.4 0 1 0 -8.8 0zM988.75 44.97 a4.4 4.4 0 1 0 8.8 0 a4.4 4.4 0 1 0 -8.8 0zM988.75 88.97 a4.4 4.4 0 1 0 8.8 0 a4.4 4.4 0 1 0 -8.8 0zM950.64 110.97 a4.4 4.4 0 1 0 8.8 0 a4.4 4.4 0 1 0 -8.8 0zM912.54 88.97 a4.4 4.4 0 1 0 8.8 0 a4.4 4.4 0 1 0 -8.8 0zM912.54 44.97 a4.4 4.4 0 1 0 8.8 0 a4.4 4.4 0 1 0 -8.8 0zM1026.86 22.97 a4.4 4.4 0 1 0 8.8 0 a4.4 4.4 0 1 0 -8.8 0zM1064.96 44.97 a4.4 4.4 0 1 0 8.8 0 a4.4 4.4 0 1 0 -8.8 0zM1064.96 88.97 a4.4 4.4 0 1 0 8.8 0 a4.4 4.4 0 1 0 -8.8 0zM1026.86 110.97 a4.4 4.4 0 1 0 8.8 0 a4.4 4.4 0 1 0 -8.8 0zM988.75 352.97 a4.4 4.4 0 1 0 8.8 0 a4.4 4.4 0 1 0 -8.8 0zM1026.86 374.97 a4.4 4.4 0 1 0 8.8 0 a4.4 4.4 0 1 0 -8.8 0zM1026.86 418.97 a4.4 4.4 0 1 0 8.8 0 a4.4 4.4 0 1 0 -8.8 0zM988.75 440.97 a4.4 4.4 0 1 0 8.8 0 a4.4 4.4 0 1 0 -8.8 0zM950.64 418.97 a4.4 4.4 0 1 0 8.8 0 a4.4 4.4 0 1 0 -8.8 0zM950.64 374.97 a4.4 4.4 0 1 0 8.8 0 a4.4 4.4 0 1 0 -8.8 0zM1103.07 110.97 a4.4 4.4 0 1 0 8.8 0 a4.4 4.4 0 1 0 -8.8 0zM1103.07 154.97 a4.4 4.4 0 1 0 8.8 0 a4.4 4.4 0 1 0 -8.8 0zM1064.96 176.97 a4.4 4.4 0 1 0 8.8 0 a4.4 4.4 0 1 0 -8.8 0zM1026.86 154.97 a4.4 4.4 0 1 0 8.8 0 a4.4 4.4 0 1 0 -8.8 0zM1103.07 418.97 a4.4 4.4 0 1 0 8.8 0 a4.4 4.4 0 1 0 -8.8 0zM1141.18 440.97 a4.4 4.4 0 1 0 8.8 0 a4.4 4.4 0 1 0 -8.8 0zM1141.18 484.97 a4.4 4.4 0 1 0 8.8 0 a4.4 4.4 0 1 0 -8.8 0zM1103.07 506.97 a4.4 4.4 0 1 0 8.8 0 a4.4 4.4 0 1 0 -8.8 0zM1064.96 484.97 a4.4 4.4 0 1 0 8.8 0 a4.4 4.4 0 1 0 -8.8 0zM1064.96 440.97 a4.4 4.4 0 1 0 8.8 0 a4.4 4.4 0 1 0 -8.8 0zM1217.39 484.97 a4.4 4.4 0 1 0 8.8 0 a4.4 4.4 0 1 0 -8.8 0zM1255.49 506.97 a4.4 4.4 0 1 0 8.8 0 a4.4 4.4 0 1 0 -8.8 0zM1255.49 550.97 a4.4 4.4 0 1 0 8.8 0 a4.4 4.4 0 1 0 -8.8 0zM1217.39 572.97 a4.4 4.4 0 1 0 8.8 0 a4.4 4.4 0 1 0 -8.8 0zM1179.28 550.97 a4.4 4.4 0 1 0 8.8 0 a4.4 4.4 0 1 0 -8.8 0zM1179.28 506.97 a4.4 4.4 0 1 0 8.8 0 a4.4 4.4 0 1 0 -8.8 0zM1293.6 484.97 a4.4 4.4 0 1 0 8.8 0 a4.4 4.4 0 1 0 -8.8 0zM1331.71 506.97 a4.4 4.4 0 1 0 8.8 0 a4.4 4.4 0 1 0 -8.8 0zM1331.71 550.97 a4.4 4.4 0 1 0 8.8 0 a4.4 4.4 0 1 0 -8.8 0zM1293.6 572.97 a4.4 4.4 0 1 0 8.8 0 a4.4 4.4 0 1 0 -8.8 0z" fill="rgba(102, 140, 126, 1)"></path><path d="M58.91 337.16L110.01 366.66L110.01 425.66L58.91 455.16L7.81 425.66L7.81 366.66zM110.01 425.66L161.1 455.16L161.1 514.16L110.01 543.66L58.91 514.16L58.91 455.16zM58.91 514.16L110.01 543.66L110.01 602.66L58.91 632.16L7.81 602.66L7.81 543.66zM161.1 -16.84L212.2 12.66L212.2 71.66L161.1 101.16L110.01 71.66L110.01 12.66zM212.2 71.66L263.3 101.16L263.3 160.16L212.2 189.66L161.1 160.16L161.1 101.16zM161.1 337.16L212.2 366.66L212.2 425.66L161.1 455.16L110.01 425.66L110.01 366.66zM263.3 -16.84L314.39 12.66L314.39 71.66L263.3 101.16L212.2 71.66L212.2 12.66zM314.39 71.66L365.49 101.16L365.49 160.16L314.39 189.66L263.3 160.16L263.3 101.16zM314.39 248.66L365.49 278.16L365.49 337.16L314.39 366.66L263.3 337.16L263.3 278.16zM416.59 248.66L467.69 278.16L467.69 337.16L416.59 366.66L365.49 337.16L365.49 278.16zM467.69 -16.84L518.78 12.66L518.78 71.66L467.69 101.16L416.59 71.66L416.59 12.66zM467.69 160.16L518.78 189.66L518.78 248.66L467.69 278.16L416.59 248.66L416.59 189.66zM518.78 248.66L569.88 278.16L569.88 337.16L518.78 366.66L467.69 337.16L467.69 278.16zM467.69 514.16L518.78 543.66L518.78 602.66L467.69 632.16L416.59 602.66L416.59 543.66zM569.88 160.16L620.98 189.66L620.98 248.66L569.88 278.16L518.78 248.66L518.78 189.66zM620.98 425.66L672.07 455.16L672.07 514.16L620.98 543.66L569.88 514.16L569.88 455.16zM569.88 514.16L620.98 543.66L620.98 602.66L569.88 632.16L518.78 602.66L518.78 543.66zM672.07 -16.84L723.17 12.66L723.17 71.66L672.07 101.16L620.98 71.66L620.98 12.66zM723.17 71.66L774.27 101.16L774.27 160.16L723.17 189.66L672.07 160.16L672.07 101.16zM672.07 160.16L723.17 189.66L723.17 248.66L672.07 278.16L620.98 248.66L620.98 189.66zM774.27 -16.84L825.36 12.66L825.36 71.66L774.27 101.16L723.17 71.66L723.17 12.66zM825.36 248.66L876.46 278.16L876.46 337.16L825.36 366.66L774.27 337.16L774.27 278.16zM876.46 160.16L927.56 189.66L927.56 248.66L876.46 278.16L825.36 248.66L825.36 189.66zM876.46 337.16L927.56 366.66L927.56 425.66L876.46 455.16L825.36 425.66L825.36 366.66zM927.56 425.66L978.66 455.16L978.66 514.16L927.56 543.66L876.46 514.16L876.46 455.16zM978.66 160.16L1029.75 189.66L1029.75 248.66L978.66 278.16L927.56 248.66L927.56 189.66zM1080.85 -16.84L1131.95 12.66L1131.95 71.66L1080.85 101.16L1029.75 71.66L1029.75 12.66zM1131.95 248.66L1183.04 278.16L1183.04 337.16L1131.95 366.66L1080.85 337.16L1080.85 278.16zM1131.95 425.66L1183.04 455.16L1183.04 514.16L1131.95 543.66L1080.85 514.16L1080.85 455.16zM1080.85 514.16L1131.95 543.66L1131.95 602.66L1080.85 632.16L1029.75 602.66L1029.75 543.66zM1183.04 -16.84L1234.14 12.66L1234.14 71.66L1183.04 101.16L1131.95 71.66L1131.95 12.66zM1336.33 425.66L1387.43 455.16L1387.43 514.16L1336.33 543.66L1285.24 514.16L1285.24 455.16zM1387.43 -16.84L1438.53 12.66L1438.53 71.66L1387.43 101.16L1336.33 71.66L1336.33 12.66zM1387.43 514.16L1438.53 543.66L1438.53 602.66L1387.43 632.16L1336.33 602.66L1336.33 543.66zM1489.62 -16.84L1540.72 12.66L1540.72 71.66L1489.62 101.16L1438.53 71.66L1438.53 12.66zM1540.72 71.66L1591.82 101.16L1591.82 160.16L1540.72 189.66L1489.62 160.16L1489.62 101.16zM1489.62 160.16L1540.72 189.66L1540.72 248.66L1489.62 278.16L1438.53 248.66L1438.53 189.66zM1540.72 248.66L1591.82 278.16L1591.82 337.16L1540.72 366.66L1489.62 337.16L1489.62 278.16z" stroke="rgba(89, 106, 99, 1)" stroke-width="2"></path></g><defs><mask id="SvgjsMask1222"><rect width="1440" height="560" fill="#ffffff"></rect></mask></defs></svg>